<?xml version="1.0" encoding="UTF-8" standalone="no"?>
<svg
   xmlns:dc="http://purl.org/dc/elements/1.1/"
   xmlns:cc="http://creativecommons.org/ns#"
   xmlns:rdf="http://www.w3.org/1999/02/22-rdf-syntax-ns#"
   xmlns:svg="http://www.w3.org/2000/svg"
   xmlns="http://www.w3.org/2000/svg"
   xmlns:sodipodi="http://sodipodi.sourceforge.net/DTD/sodipodi-0.dtd"
   xmlns:inkscape="http://www.inkscape.org/namespaces/inkscape"
   inkscape:version="1.0 (1.0+r73+1)"
   sodipodi:docname="frg.svg"
   id="svg40"
   version="1.1"
   height="598.98633"
   width="598.98633">
  <metadata
     id="metadata46">
    <rdf:RDF>
      <cc:Work
         rdf:about="">
        <dc:format>image/svg+xml</dc:format>
        <dc:type
           rdf:resource="http://purl.org/dc/dcmitype/StillImage" />
      </cc:Work>
    </rdf:RDF>
  </metadata>
  <defs
     id="defs44">
    <clipPath
       id="clipPath71"
       clipPathUnits="userSpaceOnUse">
      <rect
         y="0.50682634"
         x="200.50682"
         height="598.98633"
         width="598.98633"
         id="rect73"
         style="opacity:0.75;fill:#ffcc00;stroke:#d4aa00;stroke-width:1.01365" />
    </clipPath>
  </defs>
  <sodipodi:namedview
     inkscape:current-layer="svg40"
     inkscape:window-maximized="1"
     inkscape:window-y="25"
     inkscape:window-x="0"
     inkscape:cy="299.49317"
     inkscape:cx="300.49065"
     inkscape:zoom="1.097"
     showgrid="false"
     id="namedview42"
     inkscape:window-height="1031"
     inkscape:window-width="1920"
     inkscape:pageshadow="2"
     inkscape:pageopacity="0"
     guidetolerance="10"
     gridtolerance="10"
     objecttolerance="10"
     borderopacity="1"
     bordercolor="#666666"
     pagecolor="#ffffff" />
  <g
     transform="translate(-200.50682,-0.50682634)"
     clip-path="url(#clipPath71)"
     id="g67">
    <rect
       width="1000"
       height="600"
       fill="#ffce00"
       id="rect2"
       x="0"
       y="0"
       style="opacity:1" />
    <rect
       width="1000"
       height="400"
       fill="#dd0000"
       id="rect4"
       x="0"
       y="0"
       style="opacity:1" />
    <rect
       width="1000"
       height="200"
       fill="#000000"
       id="rect6"
       x="0"
       y="0"
       style="opacity:1" />
    <path
       d="m 598.91094,165.05789 c 0,0 0,131.76879 0,171.66209 0,54.09774 -50.47106,98.22216 -112.42658,98.22216 -61.9555,0 -112.42658,-44.12442 -112.42658,-98.22216 0,-39.8933 0,-171.66209 0,-171.66209 z"
       fill="#ffce00"
       stroke="#000000"
       stroke-width="2"
       id="path8"
       style="opacity:1" />
    <path
       d="m 469.55992,211.29786 c -2.11554,5.43998 -4.2311,12.08888 -3.02222,20.24886 -4.2311,-0.90666 -14.80886,-2.11554 -19.3422,0.30222 -1.5111,-5.13776 -6.64888,-12.99554 -10.27554,-16.31998 10.27554,-8.46222 10.27554,-11.18222 4.83554,-14.20444 -5.44,-3.32444 -13.59998,-6.04443 -19.3422,-6.34666 -5.74222,-0.30222 -7.55556,0.90667 -10.57778,3.32445 -2.72,2.71999 -9.36888,6.34665 -16.31998,6.34665 0.60444,27.80444 -1.51112,56.81774 -4.83556,74.64884 -1.20888,4.83556 -2.11554,11.78666 -1.5111,15.71554 4.83554,-1.5111 7.85776,-4.83554 12.69332,-6.64888 2.11556,-11.78666 4.83556,-29.61776 6.34666,-41.10218 1.51112,1.5111 3.92888,4.2311 5.13778,4.83554 0.60444,14.20444 -10.27556,72.8355 -11.18222,84.62216 4.83556,-0.30222 9.97332,-5.13778 13.90222,-5.44 2.41778,-19.3422 9.6711,-59.2355 9.36888,-72.53328 1.5111,0.30222 3.62666,1.51112 5.13778,1.81334 -0.30224,22.66664 -8.16,58.63106 -8.46222,75.25328 3.92888,-0.60444 6.9511,-3.62666 11.78666,-4.23112 2.72,-16.92442 7.85776,-56.5155 8.76444,-66.79106 1.5111,0.60444 4.2311,1.51112 5.7422,2.11556 0,11.78666 -4.53332,37.47552 -3.62666,47.75108 3.02222,-1.81334 6.95112,-2.41778 9.36888,-4.83556 3.02222,-12.08888 2.41778,-32.63998 4.83556,-38.98664 1.20888,0.30222 2.72,1.2089 3.92888,1.81334 0.30222,6.64888 -1.5111,22.36442 -0.90666,28.10664 3.02222,-0.60444 4.53332,-2.72 9.06666,-3.62666 0,-3.92888 0,-12.3911 0.90666,-15.41332 3.02222,5.44 5.13778,10.57776 5.13778,18.43554 -11.78666,7.25332 -16.01776,20.5511 -33.24442,21.15554 2.11556,4.53334 6.9511,7.25332 13.29776,8.76444 0.90668,4.83556 1.2089,11.78666 3.32444,15.1111 5.13778,-4.23112 6.6489,-16.31998 16.01778,-16.31998 -1.51112,6.04444 -1.81334,9.06666 -2.41778,11.48442 -1.20888,6.64888 -6.64888,6.95112 -9.6711,12.08888 5.13776,4.53334 10.27554,4.83556 14.20442,3.62666 -3.62666,9.06668 -17.52886,10.57778 -23.5733,8.76444 -1.51112,1.81334 -1.2089,4.53334 0,5.74222 -6.6489,2.11556 -12.69334,11.48444 -3.62668,18.43554 0.60446,-4.83554 3.02222,-7.55554 7.25334,-7.25332 0.30222,1.5111 0.90666,3.62666 0.60444,5.44 8.16,0.30222 19.94666,-8.16 22.36442,-12.08888 3.02222,5.74222 -3.62666,12.99554 -9.06666,16.92442 3.02222,2.41778 5.44,3.32444 9.06666,3.02222 -1.81332,8.46222 6.6489,9.67112 3.9289,18.13332 4.83554,-3.92888 8.15998,-12.99554 5.44,-18.13332 3.62666,0.30222 6.64888,-0.60444 9.6711,-3.02222 -5.44,-3.92888 -12.08888,-11.1822 -9.06666,-16.92442 2.41778,3.92888 14.20442,12.3911 22.0622,12.08888 -0.30222,-1.81334 0.30222,-3.9289 0.90666,-5.44 4.23112,-0.30222 6.6489,2.41778 7.25334,7.25332 9.06666,-6.9511 3.02222,-16.31998 -3.62666,-18.43554 1.20888,-1.20888 1.20888,-3.92888 0,-5.74222 -6.04444,1.81334 -19.94666,0.30224 -23.57332,-8.76444 3.92888,1.2089 9.06666,0.90668 14.20442,-3.62666 -3.02222,-5.13776 -8.4622,-5.44 -9.97332,-12.08888 -0.30222,-2.41776 -0.60444,-5.43998 -2.11556,-11.48442 9.3689,0 10.57778,12.08886 16.01778,16.31998 2.11554,-3.32444 2.41778,-10.27554 3.32444,-15.1111 6.34666,-1.51112 11.18222,-4.2311 12.99554,-8.76444 -16.92442,-0.60444 -21.45776,-13.90222 -33.24442,-21.15554 0.30222,-7.85778 2.41778,-12.99554 5.44,-18.43554 0.90666,3.02222 0.60444,11.48444 0.60444,15.41332 4.53334,0.90666 6.34666,3.02222 9.36888,3.62666 0.60444,-5.74222 -1.20888,-21.45776 -0.90666,-28.10664 1.20888,-0.60444 2.72,-1.51112 3.92888,-1.81334 2.41778,6.34666 1.81334,26.89776 4.83556,38.98664 2.41778,2.41778 6.34666,3.02222 9.36888,4.83556 0.90666,-10.27556 -3.62666,-35.96442 -3.62666,-47.75108 1.5111,-0.60444 3.92888,-1.51112 5.74222,-2.11556 0.90666,10.27556 6.04444,49.86664 8.76442,66.79106 4.53334,0.60446 7.85778,3.62668 11.48444,4.23112 -0.30222,-16.62222 -7.85776,-52.58664 -8.15998,-75.25328 1.20888,-0.30222 3.62666,-1.51112 5.13776,-1.81334 -0.60444,13.29778 6.6489,53.19108 9.36888,72.53328 3.9289,0.30222 8.76444,5.13778 13.90222,5.44 -0.90666,-11.78666 -11.78666,-70.41772 -11.18222,-84.62216 1.2089,-0.60444 3.62668,-3.32444 5.13778,-4.83554 1.51112,11.48442 4.2311,29.31552 6.34666,41.10218 4.83556,1.81334 7.85778,5.13778 12.69332,6.64888 0.60446,-3.92888 -0.60444,-10.87998 -1.5111,-15.71554 -3.32444,-17.8311 -5.44,-46.8444 -5.13778,-74.64884 -6.64888,0 -13.29776,-3.62666 -16.01776,-6.34665 -3.02222,-2.41778 -4.83556,-3.62667 -10.57778,-3.32445 -5.74222,0.30223 -13.9022,3.02222 -19.3422,6.34666 -5.44,3.02222 -5.44,5.74222 4.83556,14.20444 -3.62668,3.32444 -8.76444,11.18222 -10.27556,16.31998 -4.53332,-2.41776 -15.41332,-1.20888 -19.3422,-0.30222 1.20888,-8.15998 -1.51112,-28.71108 -5.13778,-38.68441 1.20888,-0.90667 3.02222,-1.81333 4.2311,-4.53333 1.2089,-2.41778 -1.5111,-0.90667 -4.53332,-2.11555 -7.25332,-2.41778 -19.3422,-10.88 -27.80442,-10.88 -0.60444,1.81334 -2.11556,4.23111 -5.13778,6.95111 -3.02222,2.41778 4.2311,9.6711 9.36888,16.62221 5.44,6.64889 -6.64888,6.04445 -8.16,12.39111 z"
       fill="#000000"
       stroke="#000000"
       id="path10"
       style="opacity:1" />
    <g
       fill="#dd0000"
       stroke="#000000"
       id="g36"
       style="opacity:1">
      <path
         d="m 457.77328,334.3022 c -0.30224,-1.5111 -0.60446,-2.72 -0.60446,-4.2311 -2.41776,-0.30222 -4.2311,-1.20888 -6.04444,-2.11556 -7.25332,6.34666 -17.8311,19.64444 -24.47998,22.96888 -1.5111,0.60444 -3.92888,0.30222 -6.64888,-2.11556 -2.41778,-2.41778 -11.78666,-6.04444 -15.1111,-4.2311 -3.32444,1.81332 -2.72,6.64888 0.30222,8.76444 3.32444,2.41776 6.04444,2.71998 8.46222,2.71998 2.41778,0 4.83556,0.60446 1.20888,2.72 -5.13776,3.32446 -9.36888,2.11556 -10.87998,4.83556 -1.81334,4.53334 1.81332,8.16 6.64888,7.85778 6.04444,-0.60446 3.92888,-6.34666 10.88,-12.69334 3.92888,6.04444 -1.2089,9.97334 1.5111,12.39112 3.02222,2.11554 7.85778,0.90666 9.06666,-2.41778 2.41778,-5.44 -3.92888,-8.46222 -1.81334,-12.3911 2.41778,-4.23112 5.44,-2.41778 6.34668,-4.83556 5.7422,2.11556 3.02222,6.9511 6.04444,8.46222 3.02222,1.5111 7.25332,0.30222 7.55554,-3.62666 0,-4.23112 -3.92888,-6.95112 -6.64888,-8.16 3.92888,-3.92888 11.48444,-11.18222 14.20444,-13.90222 z"
         id="path12" />
      <path
         d="m 515.49768,334.3022 c 0.30222,-1.5111 0.30222,-2.72 0.60444,-4.2311 2.11556,-0.30222 4.2311,-1.20888 6.04444,-2.11556 6.9511,6.34666 17.8311,19.64444 24.47998,22.96888 1.20888,0.60444 3.92888,0.30222 6.34666,-2.11556 2.72,-2.41778 12.08888,-6.04444 15.41332,-4.2311 3.02222,1.81332 2.72,6.64888 -0.30222,8.76444 -3.32444,2.41776 -6.04444,2.71998 -8.46222,2.71998 -2.41778,0 -4.83554,0.60446 -1.20888,2.72 5.13778,3.32446 9.36888,2.11556 10.57776,4.83556 2.11556,4.53334 -1.5111,8.16 -6.34666,7.85778 -6.34666,-0.60446 -3.92888,-6.34666 -10.87998,-12.69334 -4.23112,6.04444 1.20888,9.97334 -1.81334,12.39112 -2.72,2.11554 -7.55554,0.90666 -9.06666,-2.41778 -2.11556,-5.44 4.2311,-8.46222 2.11556,-12.3911 -2.41778,-4.23112 -5.44,-2.41778 -6.34666,-4.83556 -5.74222,2.11556 -3.02222,6.9511 -6.04444,8.46222 -3.02222,1.5111 -7.55556,0.30222 -7.55556,-3.62666 -0.30222,-4.23112 3.92888,-6.95112 6.64888,-8.16 -3.92888,-3.92888 -11.48442,-11.18222 -14.20442,-13.90222 z"
         id="path14" />
      <path
         d="m 396.11998,358.47996 c -1.81332,-5.44 0.30222,-11.1822 5.13778,-12.69332 4.83554,-1.5111 5.44,3.92888 3.92888,6.34666 -1.81332,2.41778 -7.55554,-0.30222 -9.06666,6.34666 z"
         id="path16" />
      <path
         d="m 407.3022,379.33328 c -5.74222,-1.20888 -8.46222,-12.08888 -4.53334,-14.50666 3.9289,-2.41776 7.25334,1.2089 6.95112,4.23112 0,3.02222 -3.9289,3.02222 -2.41778,10.27554 z"
         id="path18" />
      <path
         d="m 436.3155,376.31106 c -6.04444,4.53334 -13.9022,-0.30222 -12.69332,-4.83554 1.2089,-3.62668 6.34666,-3.62668 7.85778,-2.11556 2.11556,2.11556 -0.90666,5.74222 4.83554,6.9511 z"
         id="path20" />
      <path
         d="m 446.59106,368.4533 c 3.92888,-1.81334 6.34666,-7.85778 4.2311,-10.57778 -2.11554,-2.72 -6.9511,-1.20888 -6.9511,2.72 0.30222,3.62666 4.2311,4.2311 2.72,7.85778 z"
         id="path22" />
      <path
         d="m 577.15096,358.47996 c 1.81334,-5.44 -0.30222,-11.1822 -5.13778,-12.69332 -4.83554,-1.5111 -5.43998,3.92888 -3.92888,6.34666 1.81334,2.41778 7.25332,-0.30222 9.06666,6.34666 z"
         id="path24" />
      <path
         d="m 565.66652,379.33328 c 6.04444,-1.20888 8.76444,-12.08888 4.83556,-14.50666 -4.23112,-2.41776 -7.25334,1.2089 -7.25334,4.23112 0.30224,3.02222 4.23112,3.02222 2.41778,10.27554 z"
         id="path26" />
      <path
         d="m 536.95544,376.31106 c 6.04444,4.53334 13.9022,-0.30222 12.69332,-4.83554 -1.20888,-3.62668 -6.34666,-3.62668 -7.85778,-2.11556 -2.11554,2.11556 0.90668,5.74222 -4.83554,6.9511 z"
         id="path28" />
      <path
         d="m 526.37766,368.4533 c -3.62666,-1.81334 -6.04444,-7.85778 -3.92888,-10.57778 2.11556,-2.72 6.9511,-1.20888 6.64888,2.72 0,3.62666 -3.92888,4.2311 -2.72,7.85778 z"
         id="path30" />
      <path
         d="m 477.71992,201.62674 c -8.16,-3.32443 -10.57776,3.32446 -27.5022,-2.71999 3.32444,5.74221 14.20444,12.69333 25.38664,9.36889 8.16,-2.11556 6.6489,-4.83556 2.11556,-6.6489 z"
         id="path32" />
      <path
         d="m 458.98216,196.48897 c -1.81334,-6.9511 -0.60444,-13.90221 4.83556,-16.31998 5.43998,-2.41778 7.25332,0.30222 10.87998,3.92888 6.34666,6.95111 8.16,13.90221 8.46222,19.34221 0,3.92888 1.5111,6.9511 3.32444,9.06666 -9.06666,-3.02222 -20.24888,5.74222 -25.9911,-5.44 7.85778,2.72 9.97334,-5.44 16.32,-2.11554 -3.62666,-2.11556 -0.60444,-7.55556 -5.13778,-10.57778 -3.92888,-2.72 -9.97332,-3.32444 -12.69332,2.11555 z"
         id="path34" />
    </g>
    <path
       d="m 489.50658,186.51565 c -3.02222,0 -5.74222,-2.41778 -6.9511,-3.62667 -0.90668,-1.20888 -4.23112,-0.90666 -4.23112,1.20889 0.30222,3.32444 6.6489,5.44 11.18222,2.41778 z"
       fill="#ffffff"
       id="path38"
       style="opacity:1" />
  </g>
</svg>
