<?xml version="1.0" encoding="UTF-8" standalone="no"?>
<svg
   xmlns:dc="http://purl.org/dc/elements/1.1/"
   xmlns:cc="http://creativecommons.org/ns#"
   xmlns:rdf="http://www.w3.org/1999/02/22-rdf-syntax-ns#"
   xmlns:svg="http://www.w3.org/2000/svg"
   xmlns="http://www.w3.org/2000/svg"
   xmlns:sodipodi="http://sodipodi.sourceforge.net/DTD/sodipodi-0.dtd"
   xmlns:inkscape="http://www.inkscape.org/namespaces/inkscape"
   inkscape:version="1.0 (1.0+r73+1)"
   height="479.02026"
   width="479.02023"
   sodipodi:docname="kvx.svg"
   version="1.1"
   viewBox="0 0 479.02023 479.02026"
   id="flag-icon-css-xk">
  <metadata
     id="metadata21">
    <rdf:RDF>
      <cc:Work
         rdf:about="">
        <dc:format>image/svg+xml</dc:format>
        <dc:type
           rdf:resource="http://purl.org/dc/dcmitype/StillImage" />
      </cc:Work>
    </rdf:RDF>
  </metadata>
  <defs
     id="defs19">
    <clipPath
       id="clipPath38"
       clipPathUnits="userSpaceOnUse">
      <rect
         y="0.48987496"
         x="80.489876"
         height="479.02026"
         width="479.02023"
         id="rect40"
         style="opacity:0.6;fill:#ffcc00;stroke:#d4aa00;stroke-width:0.979749" />
    </clipPath>
  </defs>
  <sodipodi:namedview
     inkscape:current-layer="flag-icon-css-xk"
     inkscape:window-maximized="1"
     inkscape:window-y="25"
     inkscape:window-x="0"
     inkscape:cy="239.51013"
     inkscape:cx="239.51012"
     inkscape:zoom="1.7140625"
     showgrid="false"
     id="namedview17"
     inkscape:window-height="1031"
     inkscape:window-width="1920"
     inkscape:pageshadow="2"
     inkscape:pageopacity="0"
     guidetolerance="10"
     gridtolerance="10"
     objecttolerance="10"
     borderopacity="1"
     bordercolor="#666666"
     pagecolor="#ffffff" />
  <g
     transform="translate(-80.489876,-0.48987496)"
     clip-path="url(#clipPath38)"
     id="g34">
    <path
       fill="#244aa5"
       d="M 0,0 H 640 V 480 H 0 Z"
       id="path2" />
    <path
       fill="#d0a650"
       d="m 253,224.8 c 0,0 1.2,-0.8 1.6,-0.9 0.5,0 2,-0.6 2,-0.6 0,0 1,-0.5 1.5,-0.5 0.6,0 1.6,0.6 2,1.1 0.3,0.5 2,1.4 2,1.4 0,0 1.2,0.4 1.5,0 0.2,-0.4 0.7,-0.7 1.3,-0.7 0.5,0 0.6,-0.5 0.6,-0.9 0,-0.4 0.2,-0.9 0.6,-1.4 0.5,-0.5 1.3,-0.8 1.3,-0.8 0,0 1.2,-0.5 1.3,-1.2 0.2,-0.7 1.3,-1.2 2,-1.3 0.7,0 0,-0.4 1.8,-0.2 1.7,0.2 2,-0.4 2,-0.9 0.1,-0.5 0,-1 1.1,-1 1.1,0.2 1.6,0.2 1.6,-0.4 0,-0.6 1,-1 -0.7,-1.4 -1.8,-0.5 -1.6,-0.1 -1.8,-1 0,-0.7 0,-0.6 -1.1,-0.7 -1.2,-0.1 -0.6,-0.7 -0.7,-1.3 -0.1,-0.6 -0.4,-1 -0.6,-1.3 -0.3,-0.4 -0.9,-0.4 -0.9,-1 0,-0.6 -0.1,-1 -0.7,-1 -0.7,0 -1,0 -1,-0.5 0,-0.6 0.2,-1 0.8,-1 0.7,0 1,-0.6 1,-1.2 -0.2,-0.6 -0.2,-1.9 -0.2,-1.9 l 0.9,-1 c 0,0 2.6,-2.1 2.8,-2.5 0.2,-0.4 1.1,-0.7 1.5,0.1 0.4,0.8 0.6,1 1,1.4 0.3,0.4 1.3,0.1 1.5,-0.3 0.2,-0.4 0.3,-1.9 0.9,-2.7 0.6,-0.7 1,-1.1 1.1,-1.8 0.1,-0.7 0.5,-1.2 1.2,-1.2 0.6,0 1,-0.9 1,-1.4 0,-0.5 0.4,-1 1.2,-1.2 0.8,-0.1 1.3,-0.6 1.6,0.2 0.3,0.8 0.6,0.7 1.1,1 0.6,0.3 1.4,0.6 1.8,0.3 0.5,-0.4 0.7,-1 1.3,-0.7 0.6,0.4 1,0 1.2,-0.7 l 0.3,-1.9 c 0,0 0.1,-0.5 1.1,-0.5 1,0 0.3,-0.6 0.8,-1 0.6,-0.4 0.6,-0.8 1.3,-0.6 0.7,0.3 1.8,-0.3 1.3,-1 -0.6,-0.6 -1.8,-1.6 -1.1,-2.4 0.7,-0.8 1,-2 0.3,-2.2 -0.7,-0.1 -1.8,0.1 -1.9,-0.6 -0.1,-0.8 -0.4,-1.4 0.5,-1.5 0.8,-0.1 2.2,-0.1 2.7,-0.5 0.4,-0.4 1.8,-0.7 1.8,-1.8 0,-1.2 0.4,-1.3 0.6,-2 0.1,-0.6 0.1,-2 -0.5,-2.6 -0.6,-0.7 -1.4,-1.6 -1.5,-2 -0.2,-0.4 -0.7,-1 -1.6,-1.3 -0.8,-0.2 -1.6,-0.4 -1.6,-1 0,-0.7 0.6,0.1 0.6,-1.6 0,-1.7 -1.1,-2 -1.1,-2 l -1.7,-1 c 0,0 -3,-0.8 -3.8,-0.8 -0.8,0 -1.8,-0.8 -0.9,-1.4 1,-0.5 1.2,-1.5 0.9,-2.2 -0.4,-0.7 -0.6,-1.3 -1.9,-1.6 -1.3,-0.3 -1.6,-0.6 -1,-1.4 0.5,-0.7 0.7,-1.3 1.4,-0.7 0.6,0.5 1.8,0.7 2.7,0.3 1,-0.4 1.3,-0.8 1.8,-0.3 0.4,0.4 1,0.8 1.7,0.2 0.7,-0.7 2,-0.8 2.6,-0.5 0.5,0.4 2,0.3 2.4,0 0.4,-0.2 1.4,-1 1.4,-1.3 0,-0.3 0.6,-1.2 1.1,-1.5 0.6,-0.4 1.3,-1.4 1.9,-1.4 0.6,0 0.8,-0.7 0.8,-1 0,-0.5 0.5,-1.4 0.6,-1.7 0,-0.3 1.2,-0.8 2,0 0.9,0.5 2,0.8 2,0.8 0,0 1,0.2 1.7,0 0.5,-0.3 1.3,-0.5 2.1,0 0.9,0.6 2,0.6 2,0.6 l 0.3,-1.3 c 0,-0.4 0.2,-1.2 -0.3,-1.5 -0.4,-0.3 -1,-0.7 -0.1,-1.4 1,-0.6 1,-0.5 1.9,-0.5 l 2.2,0.1 c 0.7,0 1.8,0.7 1.8,1.3 0,0.6 0.5,1 1,1.4 0.6,0.3 1.3,0.6 1,1.2 -0.1,0.5 -0.1,1 0.6,0.8 0.7,-0.1 0.9,0.3 0.9,0.9 0,0.5 0.2,0.8 1,1 0.6,0.2 1,0.7 1,1.2 0,0.5 -0.2,0.9 0,1.4 l 1,1.4 c 0,0 1.3,1.5 -0.4,0.7 -1.6,-0.7 -2,-1 -2.5,-1 l -1,0.5 -1.3,0.2 c -0.6,0 -1.2,1.2 -0.2,1.4 0.9,0.2 1.2,0.4 1.2,1.2 0,0.8 -0.3,0.5 -0.8,1 -0.4,0.6 -0.8,0.2 -1.6,0.2 -0.8,0 -1,0.7 -1,1.3 0,0.6 0.3,0.6 0.6,1 0.4,0.6 1,0.7 1.6,0.2 0.5,-0.5 1,-0.9 1.3,0.1 0.4,1 0.9,1 1.5,1 0.7,0 1,0 1.6,-0.4 0.5,-0.3 1.2,0 1.3,0.9 0.2,0.8 0.7,1 1.3,1.3 0.6,0.3 1,0.5 1,1 0.2,0.6 0.5,0.8 1.1,0.5 0.6,-0.4 1.5,-0.6 1.9,-0.1 l 0.9,1.2 v 1.1 l 2.3,0.8 0.2,1 c 0,0.3 0.4,0.6 1,0.4 h 1.6 c 0,0 0.8,-0.3 0.8,-1 0,-0.6 0.3,-0.8 1,-0.8 0.5,0 1.8,0.5 2.1,-0.2 0.4,-0.6 1.4,-0.8 2.2,-0.5 l 3,1.2 c 0,0 -0.3,0 0.4,1.1 0.7,1.1 2,1.1 2,1.1 0,0 0,1 0.3,1.4 0.2,0.4 1.3,0.6 1.8,0.2 0.6,-0.4 1.4,-1 2.1,-1 0.7,0 1.2,0 1.2,-0.4 0,-0.4 -0.7,-0.7 -0.7,-1.4 0,-0.7 0.7,-0.6 0.8,-1.3 0.1,-0.6 0.8,0 1.3,0.4 0.5,0.4 1,0.8 1,1.2 0,0.5 1,2 1.5,2.2 0.6,0.2 2.1,0.3 2.6,-0.2 0.4,-0.6 1.6,-0.8 1.5,0.5 -0.1,1.3 -0.4,1.4 0.4,1.8 0.8,0.4 1,2 0.3,2.4 -0.7,0.4 -1,0.5 -1,1.2 0,0.7 -0.2,1.6 0.4,2 0.6,0.5 1,0.8 1,1.2 0,0.5 0.6,2.4 0.6,2.4 0,0 0.4,1.9 0.2,2.3 0,0.5 -0.3,1.2 0.7,1.1 1,-0.1 1.3,-0.1 1.3,0.7 0,0.8 0.4,1.2 -0.2,1.5 -0.6,0.4 -1,1.4 -0.4,1.6 0.6,0.2 1,0.6 1.2,1 0.1,0.4 1,1.2 1.6,0.7 0.6,-0.4 0.7,-0.6 1.2,-0.7 0.4,-0.1 0.8,-0.4 0.3,-1 -0.4,-0.5 -0.6,-1 -0.1,-1.4 0.5,-0.3 0.7,-1.3 0.7,-1.3 0,0 0.7,-1 1.5,0 0.8,1 1,0.6 1.5,0.6 0.5,0 0.8,0.5 0.8,1 0,0.6 1.2,0.5 1.2,1.3 l 0.2,3 c 0,0 0,1.1 0.7,1.5 0.7,0.5 0.6,0.6 0.2,1 -0.3,0.6 -0.2,1.5 -0.2,2 0,0.5 0.2,0.5 -0.3,1 -0.6,0.4 -0.9,1 -0.5,1.6 0.3,0.6 0.2,1 1.1,1.8 1,0.7 0.9,1 0.9,1.6 0,0.5 0.9,1.3 0.9,1.8 0,0.5 0.7,1.2 1.3,1.3 0.6,0.1 1.2,1 1.2,1.6 l 0.1,1.9 c 0,0 0,0.3 0.6,0.3 0.7,0 1.2,0.8 1.4,0 0.2,-1 1,-1 1.4,-1.3 0.4,-0.3 1.4,-0.6 1.9,-0.3 0.5,0.3 1,0.3 1.5,0.3 l 2.6,0.1 c 0,0 0.6,0 1,0.8 0.3,0.8 1.3,1.8 0.8,2.2 -0.6,0.5 -0.6,1.3 0,1.3 0.6,0 1.5,0 1.5,0.5 0,0.6 0,1 0.7,0.7 0.5,-0.3 0.9,-0.4 1.1,0 0.3,0.4 0.7,0.4 1.3,0.7 0.6,0.4 0.8,0.1 1.2,-0.3 0.3,-0.4 1.7,-0.8 1.7,-0.8 0,0 1.8,-0.5 2.5,-0.3 l 1.7,0.7 c 0,0 0.4,1 0.2,1.7 -0.2,0.6 -0.5,0.5 -0.2,1.5 0.2,1 -0.3,1 -0.7,1 -0.5,-0.2 -1,-0.2 -1,0.7 0,0.8 -0.4,1 -0.4,1.8 0,0.8 0,0.6 -0.5,1 -0.4,0.3 -0.6,0.8 0.1,1 0.7,0 0.5,0.8 0.5,1.2 l -0.1,1.4 c 0,0 0,0.5 -0.7,0.5 -0.7,0 -1.5,0 -1.6,0.5 -0.2,0.5 -1,1.3 -0.3,1.9 0.8,0.5 0.6,0.8 0.1,1 -0.4,0.3 -0.8,1.3 0.2,1.6 0.9,0.4 0.8,0.7 0.2,1.1 -0.6,0.4 -1.7,0.8 -1.7,1.4 0,0.6 -0.3,0.6 -1,0.7 -0.7,0.1 -1,1 -0.2,2 0.8,1.1 1,1 1.6,1 0.6,0 0.6,-1 0.6,-1 l 2.5,0.2 c 0.6,0 1.4,0 1.9,-0.3 0.5,-0.4 1.7,-0.9 1.7,0 0,1 0.3,1 0.8,1.3 0.6,0.5 0.7,0.1 1.2,0.8 0.5,0.6 0.6,0 1,-0.7 0.3,-0.7 1,-1.4 1.6,-0.6 0.5,0.9 0.5,0.6 1.2,0.6 0.7,0 1,0.4 1,0.9 0,0.5 0.6,0.5 1.5,0.4 0.8,0 0.9,0.5 1.2,1 0.3,0.5 0.5,0.4 1,0.4 0.4,0 0.9,0 1.2,-0.4 0.4,-0.4 0.8,-1 1.3,-0.3 0.5,0.6 1.4,0.5 1.6,-0.2 0.3,-0.8 1.3,-1.4 1.9,-0.6 0.6,0.9 1,0.9 1.6,1 0.6,0 1.4,0 1.7,0.6 0.4,0.6 1.5,1.4 0.7,2 -0.8,0.7 -1.7,1.5 -1,1.8 a 3,3 0 0 1 1.6,1 c 0.5,0.4 2,0.7 2.7,0.8 0.7,0 1.2,0.2 2,-0.5 0.9,-0.6 1.7,-0.6 1.6,0.3 -0.1,0.8 0.3,1.8 0.3,1.8 0,0 0.6,1.4 0.6,1.9 0,0.5 -0.1,0.6 1,1.3 1,0.6 0.8,1 1.7,0.4 0.8,-0.6 1,-1 1,-1.5 v -1.7 c 0,0 1.2,-0.2 1.6,-0.5 0.5,-0.4 2.3,-1.3 2.8,-0.9 0.5,0.4 1,0.3 1.5,0.1 0.5,-0.2 1.4,-0.2 1.9,-0.2 0.4,0 1.2,0.1 2.2,-0.6 0.9,-0.8 0.9,-0.6 1.5,0 0.5,0.5 0.5,1.1 0.2,1.6 -0.4,0.4 0,1.3 0.8,1.3 0.8,0 1,0.5 1,1 l 0.3,1.7 c 0,0.4 0,0.7 1.4,1 1.2,0.3 1,1 1.2,1.6 0.3,0.5 0.3,1 -0.4,1 -0.7,0 -1,0.3 -1,0.8 -0.2,0.5 -1.2,0.7 -1.2,0.7 l -1,-0.2 c 0,0 -0.8,0 -1.1,0.4 -0.4,0.5 -1,1.3 -0.6,2 0.5,0.8 0.5,1.2 0,1.6 -0.4,0.3 -0.7,1.9 -1.1,1.6 -0.5,-0.4 -1,0 -1.5,0.3 -0.5,0.2 -0.4,1.7 0.5,2.2 1,0.6 1.2,1.3 1.2,1.3 l 1,1.6 c 0,0 -0.3,0.3 -0.5,0.9 -0.3,0.5 -1,1.6 -0.3,1.8 0.7,0.2 0.4,1.4 -0.3,1.4 -0.7,0 -1.5,-0.4 -1.6,0.5 -0.1,0.9 -0.5,0.6 -1.2,0.5 -0.7,0 -2.4,-0.5 -2.9,0.3 -0.5,0.9 -0.6,1.2 -1.4,1.1 -0.8,0 -0.5,1.3 -0.2,1.8 l 1,1.3 c 0,0 0.7,0.5 0.7,1.6 0,1 -0.5,1 -1,0.2 -0.4,-0.7 -1.3,-0.6 -1.4,0.2 -0.1,0.9 -0.3,2.2 -1,2.2 -0.9,0 -1.2,0.2 -1.6,0.6 -0.3,0.4 -0.9,1.2 -0.9,1.6 0,0.4 -0.1,0.9 -0.7,1 -0.6,0.1 -0.7,1.2 -0.7,1.2 0,0 -1.4,0.3 -1.5,0.8 -0.1,0.5 0.1,1.4 -1,1.5 a 3,3 0 0 0 -2.2,1.4 c -0.4,0.5 -0.5,1 0,1.5 0.5,0.5 0.8,2.2 1.4,2.5 0.5,0.3 1,0.5 0.9,1.3 -0.1,0.9 -0.8,1.5 0.1,1.5 1,0 1.5,0.2 1.2,1 -0.4,0.7 -0.4,0.8 -1,1.1 -0.8,0.4 -1.1,0.4 -1.1,1.2 0,0.8 0.2,0.9 -0.4,1.2 -0.6,0.3 -0.6,0.7 -0.6,1.4 0,0.7 -0.2,0.4 -0.9,1.1 -0.7,0.8 -1.6,0.8 -2.2,0.6 -0.6,-0.2 -0.7,-0.2 -0.8,-0.9 -0.1,-0.6 -1.1,-0.6 -1.7,-0.5 -0.6,0 -1.4,0.7 -1.4,0.7 0,0 -1,0.7 -0.6,1.2 0.5,0.5 0.2,1.4 -0.6,1.3 -0.8,-0.1 -2.6,0.8 -3.2,-0.1 -0.6,-1 -2.2,-1.6 -2.5,-0.3 -0.2,1.2 0.7,1.1 0.6,2.4 0,1.3 -0.3,1.3 -0.8,1.7 -0.4,0.4 -0.4,0.8 -0.6,1.3 0,0.5 -0.2,1.7 0.6,2.1 0.8,0.5 1.2,1.6 1.2,2.3 0,0.6 0,1.3 0.8,1.3 0.8,0 1.5,-0.2 1.6,-0.9 0.1,-0.7 1.7,-1.2 1.9,0.3 0,1.5 0,2.3 0.7,2.9 0.5,0.6 1,1.5 1.5,1.8 0.4,0.3 1.2,3 1.2,3 -1.1,0.3 -1.4,1.8 -2.1,2 -0.4,0.2 -0.9,0 -1.3,0.3 -0.2,0.3 -0.2,0.7 -0.6,0.8 -0.9,0.4 -0.7,-0.9 -1.8,-0.4 -0.9,0.4 -1,1.5 -2.3,1 -0.7,-0.2 -1.1,-3 -1.3,-3.6 l -1.1,-1.8 c -0.8,-1.2 -2.3,0 -2.8,-0.4 -0.8,-0.5 -0.5,-1.4 -1.7,-1.5 -2.4,-0.2 -0.7,1.5 -1.7,1.8 -2,0.7 -2,-1.8 -3.4,-0.6 -0.5,0.4 1,0.7 0.6,1.4 -0.3,0.6 -1.7,1.6 -1.7,2.3 0.2,1 1.2,1.3 1.5,2 1,2.3 -0.5,3.8 -2.7,2 -1.2,-0.9 -1.5,-2.7 -3.3,-2.5 -0.5,0 -0.6,0.4 -1,0.5 -0.5,0 -0.8,-0.4 -1.3,-0.3 -0.7,0.3 0,0.8 -0.2,1.2 0,0 -1,0.7 -1,1 -0.6,0.6 -0.4,1.2 -1.2,1.8 -0.6,0.5 -1.1,0.2 -1.8,1 -0.7,0.7 -0.8,1.9 -1.7,2.6 -0.5,0.4 -0.8,-1.1 -1.4,-0.1 l -0.2,0.4 c -0.2,0.3 -0.2,0.4 0,0.7 1.2,2.4 -1.4,3.2 -2.2,4.9 -0.3,0.7 0.6,1.3 0.3,1.9 l -1.5,1.7 c 0,0.2 -0.2,0.8 -0.4,1 -0.2,0.2 -1,0 -1,0.4 0,0.4 0.8,0.7 1,0.9 0.2,0.3 -0.2,0.7 0,0.8 1.2,1.3 0.5,0.9 1.1,2 0.1,0.2 0.5,-0.1 0.7,0.3 0.1,0.4 -0.4,0.4 -0.2,0.8 0,0.2 1,1.4 1,1.4 0,0.4 -1.8,1.2 -2.2,1.2 -1.1,0 1,-2.2 -0.8,-2.2 -0.8,0 -0.9,1.7 -1,2 h -1 c -1.2,0 -2,1.4 -2.4,1.5 -0.3,0.1 -1,-0.2 -1.5,0 -0.4,0 -1,0.5 -1.4,0.5 -0.3,0 -0.4,-0.2 -0.7,-0.4 -0.5,-0.3 -1.5,-0.4 -2,-0.6 -0.4,0 -1,0.4 -1.2,0.3 -0.3,-0.2 0.3,-1 -0.6,-1.4 l -0.7,-1.7 c 0.3,-1 0.6,-2 0.5,-3.1 -0.2,-1.1 -2,-2 -2.4,-3 -0.3,-0.6 -0.6,-2.4 -1.3,-2.8 a 6.2,6.2 0 0 1 -1.8,-2.2 c 0,-0.2 0.3,-0.6 0,-1 -0.3,-0.3 -0.8,-0.5 -1,-1 -0.1,-0.4 0,-1.8 -0.5,-2.1 -0.5,-0.3 -4,-0.8 -5,-0.9 -0.4,0 -0.7,0 -1,-0.3 l -0.6,-0.7 -1,0.2 c -0.3,0 -0.8,-0.2 -1,0 -1.1,0.7 -1.4,1.7 -2.5,2.6 -1.1,0.8 -2.3,0.8 -3.4,1.7 -0.7,0.6 -1.2,2.1 -1.9,2.8 -0.3,0.3 -0.7,0 -0.8,0.1 -0.6,0.7 -1.4,1.2 -2,1.8 -0.1,0.2 0,0.4 -0.2,0.5 l -1.3,0.4 h -1.2 c -0.5,0.2 -0.5,0.8 -2.5,1.2 l -0.5,0.3 -0.6,0.5 h -0.9 c -0.5,0 -0.8,0.5 -1.2,0.5 -1,0.2 -2.8,-0.5 -3.6,-0.1 -0.5,0.1 -1.8,1.7 -2.3,1.8 -0.3,0.1 -0.6,0 -1,-0.1 l -0.6,2.2 -2.4,2.1 c -0.3,0.3 -0.4,0.7 -0.8,1 -0.2,0.3 -0.6,0.5 -1,0.5 -0.4,0 -1.1,-0.4 -1.6,-0.4 -0.8,-0.2 -3.3,-0.3 -4,-0.1 -0.9,0.1 -0.6,2.4 -2.6,2.6 l -3.3,0.4 c -0.1,0 -0.8,-0.4 -1.5,-0.3 -0.3,0.1 -1.1,1 -1.1,1.2 v 0.5 l 0.2,0.4 c -0.4,0.5 -1.4,1.3 -1.7,2 l -0.4,0.4 c -0.2,0.2 -1.6,0.7 -1.7,0.9 -0.3,0.8 1,1.6 0.8,1.9 -0.3,1 -1.7,2 -2.2,3 -0.1,0.4 0.5,1.7 0.5,2.1 -0.2,1.3 -0.6,2.9 -0.5,4.1 l 0.2,1.7 0.7,0.5 1.8,3.6 c 0.3,2.2 -3,1.4 -1,3.6 0.2,0.4 0.4,0.7 0.8,1 l 2.8,2.3 c 0,0.4 -2,0.7 -2.3,1 -1,1 -1.7,2.6 -2.6,3.6 -0.6,0.5 -1,-0.1 -1.8,1.3 -0.2,0.5 0,1.6 -0.3,2 -0.5,0.4 -0.8,-0.2 -1.3,0 -0.2,0 -0.3,0.7 -0.5,0.8 -0.5,0.5 -5.2,3 -5.6,2.7 -0.2,-0.1 -0.5,-0.9 -0.5,-1.1 0,-0.3 -0.4,-0.9 -0.6,-1 -1.2,-1 -3,-1.3 -4.2,0 -0.3,0.3 -0.3,0.8 -0.7,1 l -2,1.6 -0.5,0.5 c -0.5,0 -1.6,-1.3 -2,-1.7 -0.4,-0.6 -2,-2 -2.1,-2.7 0,-2.4 -1.9,-4.9 -2.6,-7.2 h 1.1 c 1.3,-0.9 1,-3 3.3,-2.2 0.3,-0.4 0.3,-0.8 0.8,-1 0.2,-0.2 0.6,-0.3 0.7,-0.5 0.8,-1.2 1.7,-5.8 0.9,-7 -0.7,-1 -1.5,-1 -2,-2.7 -0.2,-0.5 0,-1 0,-1.6 l -1,-3.1 c -0.2,-0.3 -0.7,-0.5 -0.7,-0.7 l -0.2,-3.1 c -0.7,-2.2 -3.4,-3.5 -3.5,-3.8 l -1,-1.7 c -0.4,-0.7 -0.4,-1 -0.6,-1.6 -0.1,-0.3 -0.6,-0.6 -0.6,-0.9 0,-0.6 1.6,-1.7 1.5,-2.7 0,-0.3 -1,-1.3 -0.8,-1.8 0.2,-0.6 1.2,-1.8 1.2,-2.5 0,-0.8 -1.6,-2.6 -1.8,-3.4 -0.1,-0.5 0.6,-0.8 0.4,-1.1 -0.2,-0.4 -1.8,-1.9 -2,-2.3 -0.3,-0.3 0.5,-0.7 0,-1.3 -0.6,-0.5 -0.1,-0.4 -0.3,-0.8 -0.2,-0.5 -0.7,-1 -1,-1.5 -0.2,-0.5 -1.6,-5.5 -1.5,-5.8 -0.3,-0.3 -0.7,-0.6 -0.9,-1 l -0.4,-1.2 c 0,0 -1.6,-0.5 -1.9,-1 -0.2,-0.3 -0.3,-1.6 -0.7,-2.2 -0.2,-0.3 -0.5,-0.2 -0.7,-0.4 -0.2,-0.2 -0.2,-0.5 -0.3,-0.7 -0.5,-0.6 -1.4,0 -2,-2.4 -1,-0.6 -1.7,-1 -2.4,-1.8 l -0.4,-0.4 c -0.6,-0.2 -1.5,-0.3 -2,-0.7 -0.3,0 -1.8,0 -2,-0.2 l -0.4,-0.8 c -0.8,-0.1 -2.2,0 -2.9,-0.6 -0.5,-0.5 -0.6,-2.8 -1.6,-2.5 a 0.7,0.7 0 0 0 -0.4,0 c -0.7,-1 -2.9,-1 -3.8,-1.6 -0.2,-0.1 -1,0 -1,-0.2 l 0.1,-1.3 -1.1,-1.4 c -0.9,-0.2 -0.6,-0.3 -1,-0.6 -1.5,0 -1.7,0.2 -2.6,1 -0.2,0.2 -0.7,0.3 -1,0.4 -0.5,0.3 -0.6,1.2 -1.3,0.8 l -0.6,-0.5 c -0.4,-0.4 -0.6,-0.2 -0.8,-0.8 -1.2,-0.7 -4.5,1.5 -5.2,0 -0.6,-0.3 -1,0 -1.5,-0.4 -0.2,-0.2 0.7,-3 -1.7,-4 l 1.6,-1.1 c 0.2,-0.3 0,-0.8 0,-1 0,-0.5 0.3,-1.4 0.2,-1.7 0,-0.3 -0.4,-0.6 -0.5,-1 -0.2,-0.3 0,-0.8 -0.2,-1.2 l -0.8,-0.4 c -0.6,-0.5 -1.2,-0.8 -1.7,-1.4 l -0.4,-0.5 c -0.4,-0.3 -1.8,-0.8 -1.8,-1.4 0,-0.2 0.4,-0.3 0.4,-0.5 0.1,-0.3 0,-0.6 0.3,-0.8 0.6,-1 2.1,-0.5 1.9,-2.2 -0.1,-0.8 -0.7,-1.4 -0.8,-2.2 -0.3,-0.2 -0.3,-0.5 -0.5,-0.7 -1.5,-0.1 -1.3,-1.6 -1.8,-2 -1.5,-1 -2.7,-0.4 -1,-2.4 0.2,-0.7 -1.5,-1.8 -1.8,-2.1 -0.6,-0.6 -0.3,-1.9 -0.6,-2.5 0,-0.3 -1.1,-0.9 -1.4,-1.3 l -0.5,-1 v -0.1 c 0.3,-0.3 0.2,-0.8 0,-1 -0.1,-0.3 -0.6,-0.2 -0.7,-0.4 -1.4,-1.2 -3,-1.8 -4.9,-2.5 -0.5,-0.2 -0.3,-0.6 -0.8,-0.8 l -3,-1.2 c -0.2,0 -0.4,-1.1 -0.6,-1.5 l -0.9,-1 c 0,-1 -0.6,-1 -1.4,-1.6 v -0.6 l 0.6,-2.1 c 0.1,-0.4 0.6,-0.8 0.5,-1.2 l -0.4,-2.3 c -0.8,-2 -1.7,-1.8 -1.2,-4.5 0,-0.6 -0.1,-0.9 0.3,-1.4 l 0.2,-0.3 1.2,-0.9 c 0.4,-0.6 0.7,-1.9 1.2,-2.3 l 1.8,-1.2 c 0.2,-0.2 0.4,-0.9 0.3,-1.2 -0.4,-0.2 -0.8,-0.1 -1.2,-0.2 -0.2,0 -0.7,-0.4 -1.1,-0.4 -0.1,-0.2 -0.3,-0.3 -0.3,-0.5 l -0.2,-0.2 c -0.5,0 -1,-0.3 -1.4,-0.5 -0.5,-0.2 -1.2,-0.2 -1.7,-0.5 -1,-0.5 -2,-2 -2.9,-2.2 -1.2,-0.3 -2,0.1 -3.2,0.2 -0.7,0 -0.7,-0.4 -1.3,-0.6 -0.8,-0.3 -0.2,0.4 -2,-0.2 -0.3,-0.2 0,-0.8 0,-1 h -1 c -1.4,-0.4 -0.9,-1.8 -1.3,-2.7 -0.1,-0.2 -0.8,-0.2 -1,-0.2 -0.2,0 -0.2,-0.2 -0.2,-0.2 l 0.2,-0.1 c 0.2,-0.4 -0.7,-1.4 -0.7,-1.6 0.1,-0.3 2,-0.6 2.2,-0.6 0.1,-0.3 -0.1,-0.5 -0.2,-0.7 0,-0.5 0.3,-1.2 0.5,-1.7 v -0.2 c -0.6,-0.3 -0.7,-0.7 -1.2,-1 0,-0.3 0.3,-0.4 0.4,-0.7 0.9,-2.5 2.3,-0.5 3.5,-2.8 0.1,-0.2 0.5,-0.7 0.6,-1.1 h 0.2 c 0.2,0 0.6,0.2 0.8,0 0.2,-0.2 0.5,-0.2 0.8,-0.3 h 0.5 c 2.2,-0.4 1.7,-1.2 3,-2.1 0.4,-0.3 1.4,-0.4 1.8,-0.6 0.5,0.3 1.2,1 2.1,1.4 0.7,0.2 3,0.7 3.4,1 0.5,0.2 0.6,0.8 1,1 1.3,0.8 0.5,-0.4 1.8,-0.2 1.3,0.3 2.3,1.4 3.5,1.9 l 1,-0.1 c 0.3,-0.1 2.3,-0.5 2.5,-0.4 l 0.8,0.3 c 0.3,0.1 0.5,-0.5 0.8,-0.5 0.8,0.2 0.8,0.5 2,0.4 0,0 0.6,-3.3 1.2,-3.4 0.3,-0.1 1.2,0.7 1.4,0.8 0.4,0.1 0,-0.7 0,-0.7 -0.2,-0.3 -0.8,-2.3 -0.7,-2.5 0,0 0.5,0.2 0.8,0.1 0.6,-0.2 1.5,-0.4 2,-0.9 l 1,-1.5 c 0.1,-0.2 -0.2,-0.8 0,-1 l 0.9,-0.6 c 0.4,-0.4 0.4,-1 1,-1.3 2,-0.2 2.7,-1.8 4.6,-2 h 0.6 l 0.4,0.6 c 0,0.1 1.3,0.9 1.5,0.8 0.2,0 0.3,-0.3 0.5,-0.4 0.3,0.1 1.4,-0.5 1.5,-0.9 0,0 -0.2,-0.3 -0.1,-0.6 a 12,12 0 0 1 1.6,-1.2 h 1.4 c 0.2,0.2 0.2,0.6 0.5,0.6 h 1.2 c 0.2,0 0.3,-0.5 0.7,-0.5 z"
       id="path4" />
    <g
       id="h">
      <path
         id="star"
         fill="#ffffff"
         d="M 351.9,73.4 368,123 325.8,92.3 H 378 l -42.2,30.7 16,-49.6 z" />
      <path
         id="star_1_"
         fill="#ffffff"
         d="m 414.7,84.5 16,49.6 -42.1,-30.7 h 52.1 l -42.2,30.7 z" />
      <path
         id="star_2_"
         fill="#ffffff"
         d="m 474.6,106.3 16,49.6 -42.1,-30.7 h 52.1 l -42.2,30.8 16.2,-49.6 z" />
    </g>
    <g
       id="h_1_">
      <path
         id="star_3_"
         fill="#ffffff"
         d="M 288.1,73.4 272,123 314.2,92.3 H 262 l 42.2,30.7 -16,-49.6 z" />
      <path
         id="star_4_"
         fill="#ffffff"
         d="m 225.3,84.5 -16,49.6 42.1,-30.7 h -52.1 l 42.2,30.7 z" />
      <g
         transform="scale(-1,1)"
         id="g13">
        <path
           id="star_5_"
           fill="#ffffff"
           d="m -165.7,106.3 -16.2,49.6 42.2,-30.7 h -52.1 l 42.2,30.7 z" />
      </g>
    </g>
  </g>
</svg>
