<?xml version="1.0" encoding="UTF-8" standalone="no"?>
<svg
   xmlns:dc="http://purl.org/dc/elements/1.1/"
   xmlns:cc="http://creativecommons.org/ns#"
   xmlns:rdf="http://www.w3.org/1999/02/22-rdf-syntax-ns#"
   xmlns:svg="http://www.w3.org/2000/svg"
   xmlns="http://www.w3.org/2000/svg"
   xmlns:sodipodi="http://sodipodi.sourceforge.net/DTD/sodipodi-0.dtd"
   xmlns:inkscape="http://www.inkscape.org/namespaces/inkscape"
   inkscape:version="1.0 (1.0+r73+1)"
   sodipodi:docname="urs.svg"
   id="svg10"
   height="599.04852"
   width="799.04852"
   version="1.1">
  <metadata
     id="metadata16">
    <rdf:RDF>
      <cc:Work
         rdf:about="">
        <dc:format>image/svg+xml</dc:format>
        <dc:type
           rdf:resource="http://purl.org/dc/dcmitype/StillImage" />
        <dc:title />
      </cc:Work>
    </rdf:RDF>
  </metadata>
  <defs
     id="defs14">
    <clipPath
       id="clipPath18"
       clipPathUnits="userSpaceOnUse">
      <rect
         y="0.47574899"
         x="50.47575"
         height="599.04852"
         width="799.04852"
         id="rect20"
         style="opacity:0.392605;fill:#000080;stroke:#d4aa00;stroke-width:0.951498" />
    </clipPath>
  </defs>
  <sodipodi:namedview
     inkscape:document-rotation="0"
     inkscape:current-layer="svg10"
     inkscape:window-maximized="1"
     inkscape:window-y="25"
     inkscape:window-x="0"
     inkscape:cy="535.02062"
     inkscape:cx="686.0818"
     inkscape:zoom="0.65333333"
     showgrid="false"
     id="namedview12"
     inkscape:window-height="1031"
     inkscape:window-width="1920"
     inkscape:pageshadow="2"
     inkscape:pageopacity="0"
     guidetolerance="10"
     gridtolerance="10"
     objecttolerance="10"
     borderopacity="1"
     bordercolor="#666666"
     pagecolor="#ffffff" />
  <g
     transform="translate(-50.47575,-0.47574899)"
     clip-path="url(#clipPath18)"
     id="g14">
    <path
       fill="#bc0000"
       fill-opacity="1"
       d="M 0,0 H 1200 V 600 H 0 Z"
       id="path2"
       style="fill:#cc0000;fill-opacity:1" />
    <path
       fill="gold"
       d="m 191.6,61.4 h -27 l 21.8,16 -8.2,25.6 21.8,-15.8 21.8,15.8 -8.2,-25.6 21.8,-16 h -27 L 200,35.6 Z m 8.4,-9.8 4.8,14.8 h 15.4 l -12.4,9 4.72,14.7 L 200,81 l -12.52,9.1 4.72,-14.7 -12.4,-9 h 15.4 z"
       id="path4"
       style="fill:#ffd700;fill-opacity:1" />
    <path
       d="m 166.577,138.645 -33.986,32.37 18.126,18.126 15.651,-15.756 c 30.522,30.98 54.246,55.066 83.72,84.978 8.159,8.46 22.368,-3.044 13.268,-12.812 -31.14,-30.347 -52.722,-52.25 -85.165,-84.067 l 19.235,-19.348 z"
       fill="gold"
       fill-opacity="1"
       fill-rule="evenodd"
       stroke="none"
       id="path6"
       style="fill:#ffd700;fill-opacity:1" />
    <path
       d="m 165.43,229.454 c 60.803,56.406 159.333,-45.304 33.413,-119.013 93.707,104.11 3.745,136.026 -28.829,103.909 l -1.64,-1.355 c -1.33,1.493 -2.663,2.984 -3.991,4.478 -2.524,-2.382 -6.444,-3.082 -7.65,0.991 -4.96,-0.343 -7.87,2.405 -9.167,7.553 -9.224,6.11 -19.21,11.472 -24.949,21.068 -3.28,10.15 3.208,14.564 10.547,13.724 12.031,-4.998 15.75,-15.801 22.188,-24.714 4.552,-1.449 8.407,-3.397 9.114,-7.54"
       fill="gold"
       fill-opacity="1"
       fill-rule="evenodd"
       stroke="none"
       id="path8"
       style="fill:#ffd700;fill-opacity:1" />
  </g>
</svg>
